# xmcd CD database file
#
# Track frame offsets:
#	150
#	11841
#	24243
#	36473
#	51238
#	63289
#	75615
#	90912
#	104989
#	119364
#	133230
#	147051
#	160114
#	174525
#	188401
#	201182
#	214853
#	227810
#	241302
#	255495
#	271019
#	284051
#	297127
#	309642
#	322039
#
# Disc length: 4473 seconds
#
# Revision: 2
# Processed by: cddbd v1.5.1PL0 Copyright (c) Steve Scherf et al.
# Submitted via: jetAudio 5
#
DISCID=6d117719
DTITLE=Various Artist - Southern Blues Voume Two
DYEAR=1900
DGENRE=
TTITLE0=Ed Bell - Mamlish Blues
TTITLE1=Blind Lemon Jefferson - Gone Dead On You Blues
TTITLE2=Bobby Grant - Nappy Head Blues
TTITLE3=Luke Jordan - Cocaine Blues
TTITLE4=Blind Willie McTell - Three Women Blues
TTITLE5=Hattie Burleson - Superstitious Blues
TTITLE6=Henry Thomas - Bull Doze Blues
TTITLE7=Emma Wright - Lonesome Trail Blues
TTITLE8=Pink Anderson - Gonna Tip Out Tonight
TTITLE9=Peg Leg Howell - Rolling Mill Blues
TTITLE10=Six Cylinder Smith - Pennsylvania Woman Blues
TTITLE11=Hambone Willie Newburn - Shelby County Workouse Blues
TTITLE12=Willie Walker - South Carolina Rag
TTITLE13=Barbecue Bob - Atlanta Moan
TTITLE14=Funny Papa Smith - Howling Wolf Pt. 1
TTITLE15=Georgia Cotton Pickers - Diddle-Da-Diddle
TTITLE16=Texas Alexander - Katy Crossin' Blues
TTITLE17=Lucinda Bogan - B.D.Woman's Blues
TTITLE18=Blind Boy Fuller - Rag, Mama, Rag
TTITLE19=Bernice Edwards - Ninth Street Stomp
TTITLE20=Blind Norris - Sundown Blues
TTITLE21=Georgia Slim - Sweet Woman Blues
TTITLE22=Pinetop Burks - Fannie Mae Blues
TTITLE23=Stick Horse Hammand - Alberta
TTITLE24=Cool Papa Smith - If You Change Your Ways Woman
EXTD=
EXTT0=
EXTT1=
EXTT2=
EXTT3=
EXTT4=
EXTT5=
EXTT6=
EXTT7=
EXTT8=
EXTT9=
EXTT10=
EXTT11=
EXTT12=
EXTT13=
EXTT14=
EXTT15=
EXTT16=
EXTT17=
EXTT18=
EXTT19=
EXTT20=
EXTT21=
EXTT22=
EXTT23=
EXTT24=
PLAYORDER=
